<svg width="191" height="132" viewBox="0 0 191 132" fill="none" xmlns="http://www.w3.org/2000/svg">
<path d="M84.3477 19.4658H136.766V64.9844C136.766 68.1515 134.198 70.719 131.031 70.719H84.3477V19.4658Z" fill="#70E166"/>
<path fill-rule="evenodd" clip-rule="evenodd" d="M134.376 21.8552H86.7371V68.3296H131.031C132.879 68.3296 134.376 66.8319 134.376 64.9844V21.8552ZM84.3477 19.4658V70.719H131.031C134.198 70.719 136.766 68.1515 136.766 64.9844V19.4658H84.3477Z" fill="#416448"/>
<path d="M54.6445 19.6196H84.9305V70.8728H60.3792C57.212 70.8728 54.6445 68.3053 54.6445 65.1382V19.6196Z" fill="#5EAE57"/>
<path fill-rule="evenodd" clip-rule="evenodd" d="M82.5411 22.0091H57.034V65.1382C57.034 66.9857 58.5317 68.4834 60.3792 68.4834H82.5411V22.0091ZM54.6445 19.6196V65.1382C54.6445 68.3053 57.212 70.8728 60.3792 70.8728H84.9305V19.6196H54.6445Z" fill="#416448"/>
<path d="M50.8976 2.46469C50.6596 1.28129 51.5645 0.17627 52.7716 0.17627H79.1224C80.0131 0.17627 80.7858 0.791508 80.9854 1.65962L84.8449 18.4518C85.1201 19.6492 84.2105 20.7916 82.9819 20.7916H56.1487C55.2382 20.7916 54.4541 20.1495 54.2746 19.2569L50.8976 2.46469Z" fill="#5EAE57"/>
<path fill-rule="evenodd" clip-rule="evenodd" d="M53.3551 2.56569L56.54 18.4021H82.3818L78.7419 2.56569H53.3551ZM52.7716 0.17627C51.5645 0.17627 50.6596 1.28128 50.8976 2.46469L54.2746 19.2569C54.4541 20.1495 55.2382 20.7916 56.1487 20.7916H82.9819C84.2105 20.7916 85.1201 19.6492 84.8449 18.4518L80.9854 1.65962C80.7858 0.791508 80.0131 0.17627 79.1224 0.17627H52.7716Z" fill="#416448"/>
<path d="M109.317 1.55022C109.49 0.650348 110.278 0 111.194 0L138.362 0C139.574 0 140.48 1.11304 140.234 2.29956L136.881 18.4771C136.697 19.3644 135.915 20.0006 135.009 20.0006H108.08C106.879 20.0006 105.976 18.9067 106.203 17.7277L109.317 1.55022Z" fill="#70E166"/>
<path fill-rule="evenodd" clip-rule="evenodd" d="M111.589 2.38943L108.659 17.6112H134.62L137.775 2.38943H111.589ZM111.194 0C110.278 0 109.49 0.650348 109.317 1.55022L106.203 17.7277C105.976 18.9067 106.879 20.0006 108.08 20.0006H135.009C135.915 20.0006 136.697 19.3644 136.881 18.4771L140.234 2.29956C140.48 1.11304 139.574 0 138.362 0L111.194 0Z" fill="#416448"/>
<path d="M112.156 25.7627H130.794V39.7408H112.156V25.7627Z" fill="#BCF9B6"/>
<path d="M22.759 107.724H44.4665V111.019C44.4665 117.12 42.4875 122.062 38.5294 125.845C34.5713 129.628 29.4588 131.52 23.1919 131.52C16.5126 131.52 10.9672 129.384 6.55557 125.113C2.18519 120.801 0 115.554 0 109.371C0 103.148 2.16458 97.8803 6.49372 93.5686C10.8641 89.2569 16.2652 87.1011 22.6971 87.1011C26.6964 87.1011 30.3659 87.996 33.7055 89.7857C37.0451 91.5755 39.6632 93.9957 41.5598 97.0465L34.2621 101.195C33.2314 99.4464 31.6646 98.0227 29.5619 96.9244C27.4592 95.8262 25.1503 95.277 22.6353 95.277C18.471 95.277 15.0696 96.6193 12.4308 99.304C9.79212 101.907 8.47276 105.263 8.47276 109.371C8.47276 113.398 9.81274 116.734 12.4927 119.378C15.1726 121.981 18.7596 123.283 23.2537 123.283C26.5109 123.283 29.2321 122.571 31.4172 121.147C33.6024 119.724 35.0867 117.73 35.8701 115.168H22.759V107.724Z" fill="#010101"/>
<path d="M80.2226 118.646H56.907C57.9378 122.469 60.8445 124.381 65.6272 124.381C68.6782 124.381 70.9871 123.364 72.5538 121.33L78.9857 124.991C75.9347 129.343 71.4406 131.52 65.5035 131.52C60.391 131.52 56.2886 129.994 53.1963 126.944C50.1041 123.893 48.558 120.049 48.558 115.412C48.558 110.856 50.0835 107.033 53.1345 103.941C56.1443 100.85 60.0611 99.304 64.885 99.304C69.4616 99.304 73.1929 100.85 76.079 103.941C79.0475 107.033 80.5318 110.856 80.5318 115.412C80.5318 116.266 80.4287 117.344 80.2226 118.646ZM56.7834 112.544H72.5538C72.1003 110.551 71.1726 109.026 69.7708 107.968C68.4102 106.91 66.7816 106.382 64.885 106.382C62.7411 106.382 60.9682 106.931 59.5664 108.029C58.1646 109.087 57.2369 110.592 56.7834 112.544Z" fill="#010101"/>
<path d="M102.883 100.158V107.724H95.8945V120.415C95.8945 121.473 96.1625 122.245 96.6985 122.734C97.2345 123.222 98.0178 123.506 99.0486 123.588C100.079 123.628 101.357 123.608 102.883 123.527V130.665C97.4819 131.276 93.6268 130.788 91.318 129.201C89.0503 127.574 87.9165 124.645 87.9165 120.415V107.724H82.536V100.158H87.9165V93.9957L95.8945 91.6162V100.158H102.883Z" fill="#010101"/>
<path d="M117.897 87.9553V122.612H134.409V130.665H109.362V87.9553H117.897Z" fill="#010101"/>
<path d="M168.34 118.646H145.024C146.055 122.469 148.962 124.381 153.744 124.381C156.795 124.381 159.104 123.364 160.671 121.33L167.103 124.991C164.052 129.343 159.558 131.52 153.62 131.52C148.508 131.52 144.406 129.994 141.313 126.944C138.221 123.893 136.675 120.049 136.675 115.412C136.675 110.856 138.2 107.033 141.252 103.941C144.261 100.85 148.178 99.304 153.002 99.304C157.579 99.304 161.31 100.85 164.196 103.941C167.165 107.033 168.649 110.856 168.649 115.412C168.649 116.266 168.546 117.344 168.34 118.646ZM144.9 112.544H160.671C160.217 110.551 159.29 109.026 157.888 107.968C156.527 106.91 154.899 106.382 153.002 106.382C150.858 106.382 149.085 106.931 147.683 108.029C146.282 109.087 145.354 110.592 144.9 112.544Z" fill="#010101"/>
<path d="M191 100.158V107.724H184.012V120.415C184.012 121.473 184.279 122.245 184.815 122.734C185.351 123.222 186.135 123.506 187.166 123.588C188.196 123.628 189.474 123.608 191 123.527V130.665C185.599 131.276 181.744 130.788 179.435 129.201C177.167 127.574 176.034 124.645 176.034 120.415V107.724H170.653V100.158H176.034V93.9957L184.012 91.6162V100.158H191Z" fill="#010101"/>
</svg>
