<svg width="98" height="33" viewBox="0 0 98 33" fill="none" xmlns="http://www.w3.org/2000/svg">
<path d="M15.3125 8.61475H38.2812V28.7851C38.2812 30.1885 37.1562 31.3263 35.7684 31.3263H15.3125V8.61475Z" fill="#70E166"/>
<path fill-rule="evenodd" clip-rule="evenodd" d="M37.2342 9.71007H16.3595V31.0141H35.7684C36.578 31.0141 37.2342 30.3275 37.2342 29.4806V9.71007ZM15.3125 8.61475V32.1094H35.7684C37.1562 32.1094 38.2812 30.9325 38.2812 29.4806V8.61475H15.3125Z" fill="#416448"/>
<path d="M1.53125 8.61475H15.3125V32.1094H4.14072C2.69955 32.1094 1.53125 30.9325 1.53125 29.4806V8.61475Z" fill="#5EAE57"/>
<path fill-rule="evenodd" clip-rule="evenodd" d="M14.2252 9.71007H2.61853V29.4806C2.61853 30.3275 3.30004 31.0141 4.14072 31.0141H14.2252V9.71007ZM1.53125 8.61475V29.4806C1.53125 30.9325 2.69955 32.1094 4.14072 32.1094H15.3125V8.61475H1.53125Z" fill="#416448"/>
<path d="M0.0171764 1.04322C-0.0898993 0.503742 0.317225 0 0.860308 0L12.7157 0C13.1164 0 13.4641 0.280468 13.5538 0.676215L15.2903 8.33126C15.4141 8.8771 15.0049 9.39787 14.4521 9.39787H2.37968C1.97007 9.39787 1.61731 9.10515 1.53655 8.69826L0.0171764 1.04322Z" fill="#5EAE57"/>
<path fill-rule="evenodd" clip-rule="evenodd" d="M1.12285 1.08926L2.55575 8.3086H14.1821L12.5445 1.08926H1.12285ZM0.860308 0C0.317225 0 -0.0898993 0.503742 0.0171764 1.04322L1.53655 8.69826C1.61731 9.10515 1.97007 9.39787 2.37968 9.39787H14.4521C15.0049 9.39787 15.4141 8.8771 15.2903 8.33126L13.5538 0.676215C13.4641 0.280468 13.1164 0 12.7157 0L0.860308 0Z" fill="#416448"/>
<path d="M25.9138 0.667716C25.9916 0.280119 26.3451 0 26.7565 0L38.954 0C39.498 0 39.9048 0.479412 39.7943 0.990471L38.2887 7.9585C38.2061 8.34067 37.8552 8.61471 37.4483 8.61471H25.3585C24.8194 8.61471 24.4139 8.14356 24.5157 7.63574L25.9138 0.667716Z" fill="#70E166"/>
<path fill-rule="evenodd" clip-rule="evenodd" d="M26.9337 1.02918L25.6183 7.58553H37.2737L38.6904 1.02918H26.9337ZM26.7565 0C26.3451 0 25.9916 0.28012 25.9138 0.667716L24.5157 7.63574C24.4139 8.14356 24.8194 8.61471 25.3585 8.61471H37.4483C37.8552 8.61471 38.2061 8.34067 38.2887 7.9585L39.7943 0.990471C39.9048 0.479412 39.498 0 38.954 0L26.7565 0Z" fill="#416448"/>
<path d="M27.5625 21.9282H35.2188V28.1935H27.5625V21.9282Z" fill="#BCF9B6"/>
<path d="M54.8387 14.8521H60.4076V15.7234C60.4076 17.3371 59.8999 18.6441 58.8845 19.6446C57.8691 20.6451 56.5575 21.1453 54.9497 21.1453C53.2362 21.1453 51.8136 20.5805 50.6818 19.451C49.5606 18.3106 49 16.9229 49 15.2878C49 13.6418 49.5553 12.2487 50.6659 11.1084C51.7871 9.9681 53.1728 9.39795 54.8228 9.39795C55.8488 9.39795 56.7902 9.63462 57.647 10.108C58.5037 10.5813 59.1754 11.2214 59.6619 12.0282L57.7898 13.1255C57.5253 12.6629 57.1234 12.2864 56.5839 11.9959C56.0445 11.7055 55.4522 11.5602 54.807 11.5602C53.7386 11.5602 52.866 11.9152 52.1891 12.6252C51.5121 13.3137 51.1736 14.2012 51.1736 15.2878C51.1736 16.3528 51.5174 17.2349 52.2049 17.9341C52.8925 18.6226 53.8127 18.9669 54.9656 18.9669C55.8012 18.9669 56.4993 18.7786 57.0599 18.4021C57.6205 18.0256 58.0013 17.4984 58.2023 16.8207H54.8387V14.8521Z" fill="#416448"/>
<path d="M69.5807 17.7405H63.5992C63.8636 18.7517 64.6093 19.2573 65.8363 19.2573C66.619 19.2573 67.2113 18.9884 67.6133 18.4505L69.2633 19.4187C68.4806 20.5697 67.3277 21.1453 65.8046 21.1453C64.493 21.1453 63.4405 20.7419 62.6472 19.935C61.8539 19.1282 61.4573 18.1116 61.4573 16.8853C61.4573 15.6804 61.8486 14.6692 62.6314 13.8516C63.4035 13.034 64.4084 12.6252 65.6459 12.6252C66.82 12.6252 67.7772 13.034 68.5176 13.8516C69.2792 14.6692 69.66 15.6804 69.66 16.8853C69.66 17.1112 69.6336 17.3962 69.5807 17.7405ZM63.5675 16.1268H67.6133C67.4969 15.5997 67.2589 15.1963 66.8993 14.9166C66.5503 14.6369 66.1325 14.4971 65.6459 14.4971C65.0959 14.4971 64.6411 14.6423 64.2814 14.9328C63.9218 15.2124 63.6838 15.6105 63.5675 16.1268Z" fill="#416448"/>
<path d="M75.3941 12.8511V14.8521H73.6012V18.2084C73.6012 18.4881 73.67 18.6925 73.8075 18.8216C73.945 18.9507 74.1459 19.026 74.4104 19.0475C74.6748 19.0583 75.0027 19.0529 75.3941 19.0314V20.9194C74.0084 21.0807 73.0195 20.9516 72.4271 20.5321C71.8454 20.1018 71.5545 19.3272 71.5545 18.2084V14.8521H70.1742V12.8511H71.5545V11.2214L73.6012 10.592V12.8511H75.3941Z" fill="#416448"/>
<path d="M79.2458 9.62386V18.7894H83.482V20.9194H77.0563V9.62386H79.2458Z" fill="#416448"/>
<path d="M92.1866 17.7405H86.2051C86.4696 18.7517 87.2153 19.2573 88.4422 19.2573C89.225 19.2573 89.8173 18.9884 90.2192 18.4505L91.8693 19.4187C91.0866 20.5697 89.9336 21.1453 88.4105 21.1453C87.0989 21.1453 86.0465 20.7419 85.2532 19.935C84.4599 19.1282 84.0632 18.1116 84.0632 16.8853C84.0632 15.6804 84.4546 14.6692 85.2373 13.8516C86.0094 13.034 87.0143 12.6252 88.2518 12.6252C89.4259 12.6252 90.3832 13.034 91.1236 13.8516C91.8851 14.6692 92.2659 15.6804 92.2659 16.8853C92.2659 17.1112 92.2395 17.3962 92.1866 17.7405ZM86.1734 16.1268H90.2192C90.1029 15.5997 89.8649 15.1963 89.5052 14.9166C89.1562 14.6369 88.7384 14.4971 88.2518 14.4971C87.7018 14.4971 87.247 14.6423 86.8874 14.9328C86.5277 15.2124 86.2897 15.6105 86.1734 16.1268Z" fill="#416448"/>
<path d="M98 12.8511V14.8521H96.2071V18.2084C96.2071 18.4881 96.2759 18.6925 96.4134 18.8216C96.5509 18.9507 96.7519 19.026 97.0163 19.0475C97.2807 19.0583 97.6086 19.0529 98 19.0314V20.9194C96.6144 21.0807 95.6254 20.9516 95.0331 20.5321C94.4513 20.1018 94.1604 19.3272 94.1604 18.2084V14.8521H92.7801V12.8511H94.1604V11.2214L96.2071 10.592V12.8511H98Z" fill="#416448"/>
</svg>
