<svg width="205" height="49" viewBox="0 0 205 49" fill="none" xmlns="http://www.w3.org/2000/svg">
<path d="M22.7285 13.2119H58.3048V44.1055C58.3048 46.2551 56.5622 47.9976 54.4127 47.9976H22.7285V13.2119Z" fill="#272A28"/>
<path fill-rule="evenodd" clip-rule="evenodd" d="M56.6831 14.8336H24.3502V46.3759H54.4127C55.6666 46.3759 56.6831 45.3594 56.6831 44.1055V14.8336ZM22.7285 13.2119V47.9976H54.4127C56.5622 47.9976 58.3048 46.2551 58.3048 44.1055V13.2119H22.7285Z" fill="white"/>
<path d="M2.57031 13.3159H23.1255V48.1016H6.46242C4.31287 48.1016 2.57031 46.3591 2.57031 44.2095V13.3159Z" fill="#272A28"/>
<path fill-rule="evenodd" clip-rule="evenodd" d="M21.5038 14.9376H4.19202V44.2095C4.19202 45.4634 5.20851 46.4799 6.46242 46.4799H21.5038V14.9376ZM2.57031 13.3159V44.2095C2.57031 46.3591 4.31287 48.1016 6.46242 48.1016H23.1255V13.3159H2.57031Z" fill="white"/>
<path d="M0.0259114 1.67279C-0.135617 0.869607 0.478549 0.119629 1.29781 0.119629L19.1822 0.119629C19.7868 0.119629 20.3112 0.537193 20.4466 1.12639L23.0661 12.5233C23.2529 13.336 22.6355 14.1113 21.8017 14.1113H3.58985C2.97194 14.1113 2.43978 13.6755 2.31795 13.0697L0.0259114 1.67279Z" fill="#272A28"/>
<path fill-rule="evenodd" clip-rule="evenodd" d="M1.69388 1.74134L3.85546 12.4896H21.3943L18.924 1.74134H1.69388ZM1.29781 0.119629C0.478549 0.119629 -0.135617 0.869607 0.0259114 1.67279L2.31795 13.0697C2.43978 13.6755 2.97194 14.1113 3.58985 14.1113H21.8017C22.6355 14.1113 23.2529 13.336 23.0661 12.5233L20.4466 1.12639C20.3112 0.537193 19.7868 0.119629 19.1822 0.119629L1.29781 0.119629Z" fill="white"/>
<path d="M39.6763 1.05214C39.7939 0.441393 40.3284 0 40.9503 0L59.3896 0C60.212 0 60.8269 0.755424 60.6599 1.56072L58.3838 12.5405C58.259 13.1427 57.7284 13.5745 57.1134 13.5745H38.8368C38.022 13.5745 37.4088 12.8321 37.5629 12.0319L39.6763 1.05214Z" fill="#272A28"/>
<path fill-rule="evenodd" clip-rule="evenodd" d="M41.2182 1.62171L39.2296 11.9528H56.8494L58.9911 1.62171H41.2182ZM40.9503 0C40.3284 0 39.7939 0.441393 39.6763 1.05214L37.5629 12.0319C37.4088 12.8321 38.022 13.5745 38.8368 13.5745H57.1134C57.7284 13.5745 58.2589 13.1427 58.3838 12.5405L60.6599 1.56072C60.8269 0.755424 60.212 0 59.3896 0L40.9503 0Z" fill="white"/>
<path d="M41.6035 17.4854H54.2529V26.9724H41.6035V17.4854Z" fill="white"/>
<path d="M90.8138 21.2322H105.547V23.4684C105.547 27.6095 104.204 30.9637 101.517 33.5312C98.8309 36.0987 95.361 37.3824 91.1076 37.3824C86.5744 37.3824 82.8106 35.933 79.8165 33.0343C76.8503 30.1079 75.3672 26.5466 75.3672 22.3503C75.3672 18.1264 76.8363 14.5513 79.7745 11.6249C82.7407 8.69853 86.4065 7.23535 90.7718 7.23535C93.4861 7.23535 95.9766 7.84271 98.2432 9.05743C100.51 10.2721 102.287 11.9148 103.574 13.9853L98.621 16.8012C97.9214 15.6141 96.8581 14.6479 95.431 13.9025C94.0038 13.1571 92.4368 12.7844 90.7298 12.7844C87.9035 12.7844 85.5949 13.6954 83.804 15.5175C82.0131 17.2844 81.1177 19.562 81.1177 22.3503C81.1177 25.0834 82.0271 27.3472 83.846 29.1417C85.6649 30.9085 88.0994 31.792 91.1496 31.792C93.3602 31.792 95.2071 31.3088 96.6902 30.3426C98.1733 29.3763 99.1807 28.0236 99.7123 26.2843H90.8138V21.2322Z" fill="white"/>
<path d="M129.815 28.6447H113.99C114.69 31.2398 116.663 32.5373 119.909 32.5373C121.979 32.5373 123.546 31.8472 124.61 30.4668L128.975 32.9515C126.904 35.9054 123.854 37.3824 119.825 37.3824C116.355 37.3824 113.57 36.3471 111.472 34.2766C109.373 32.2061 108.324 29.5972 108.324 26.45C108.324 23.358 109.359 20.7629 111.43 18.6647C113.473 16.5666 116.131 15.5175 119.405 15.5175C122.511 15.5175 125.043 16.5666 127.002 18.6647C129.017 20.7629 130.024 23.358 130.024 26.45C130.024 27.0297 129.954 27.7613 129.815 28.6447ZM113.906 24.5037H124.61C124.302 23.1509 123.672 22.1156 122.721 21.3978C121.797 20.6801 120.692 20.3212 119.405 20.3212C117.95 20.3212 116.747 20.6939 115.795 21.4393C114.844 22.157 114.214 23.1785 113.906 24.5037Z" fill="white"/>
<path d="M145.194 16.0973V21.2322H140.451V29.8456C140.451 30.5634 140.633 31.088 140.997 31.4193C141.361 31.7505 141.892 31.9438 142.592 31.999C143.291 32.0266 144.159 32.0128 145.194 31.9576V36.8027C141.528 37.2168 138.912 36.8855 137.345 35.8088C135.806 34.7045 135.036 32.7168 135.036 29.8456V21.2322H131.385V16.0973H135.036V11.9148L140.451 10.2997V16.0973H145.194Z" fill="white"/>
<path d="M155.384 7.8151V31.3364H166.591V36.8027H149.592V7.8151H155.384Z" fill="white"/>
<path d="M189.62 28.6447H173.796C174.495 31.2398 176.468 32.5373 179.714 32.5373C181.785 32.5373 183.352 31.8472 184.415 30.4668L188.78 32.9515C186.71 35.9054 183.659 37.3824 179.63 37.3824C176.16 37.3824 173.376 36.3471 171.277 34.2766C169.178 32.2061 168.129 29.5972 168.129 26.45C168.129 23.358 169.164 20.7629 171.235 18.6647C173.278 16.5666 175.936 15.5175 179.21 15.5175C182.316 15.5175 184.849 16.5666 186.808 18.6647C188.822 20.7629 189.83 23.358 189.83 26.45C189.83 27.0297 189.76 27.7613 189.62 28.6447ZM173.712 24.5037H184.415C184.107 23.1509 183.478 22.1156 182.526 21.3978C181.603 20.6801 180.497 20.3212 179.21 20.3212C177.755 20.3212 176.552 20.6939 175.6 21.4393C174.649 22.157 174.019 23.1785 173.712 24.5037Z" fill="white"/>
<path d="M205 16.0973V21.2322H200.256V29.8456C200.256 30.5634 200.438 31.088 200.802 31.4193C201.166 31.7505 201.698 31.9438 202.397 31.999C203.097 32.0266 203.964 32.0128 205 31.9576V36.8027C201.334 37.2168 198.717 36.8855 197.15 35.8088C195.611 34.7045 194.842 32.7168 194.842 29.8456V21.2322H191.19V16.0973H194.842V11.9148L200.256 10.2997V16.0973H205Z" fill="white"/>
</svg>
