<svg width="602" height="449" viewBox="0 0 602 449" fill="none" xmlns="http://www.w3.org/2000/svg">
<g opacity="0.79" clip-path="url(#clip0_103_665)">
<path d="M300.467 448.395C429.166 448.395 533.497 442.308 533.497 434.801C533.497 427.293 429.166 421.207 300.467 421.207C171.768 421.207 67.4375 427.293 67.4375 434.801C67.4375 442.308 171.768 448.395 300.467 448.395Z" fill="#F5F5F5"/>
<path d="M601.077 393.634H0.144531V393.934H601.077V393.634Z" fill="#E0E0E0"/>
<path d="M131.652 408.033H62.2207V408.333H131.652V408.033Z" fill="#E0E0E0"/>
<path d="M283.375 401.512H251.742V401.812H283.375V401.512Z" fill="#E0E0E0"/>
<path d="M356.569 401.356H294.938V401.656H356.569V401.356Z" fill="#E0E0E0"/>
<path d="M473.884 404.958H458.873V405.259H473.884V404.958Z" fill="#E0E0E0"/>
<path d="M407.035 404.958H347.158V405.259H407.035V404.958Z" fill="#E0E0E0"/>
<path d="M155.186 408.033H143.287V408.333H155.186V408.033Z" fill="#E0E0E0"/>
<path d="M535.672 404.958H483.691V405.259H535.672V404.958Z" fill="#E0E0E0"/>
<path d="M284.986 0.463379H52.8819C51.4209 0.464725 49.9984 0.931081 48.8206 1.79481C47.6428 2.65854 46.771 3.87472 46.3317 5.26693C46.1337 5.89239 46.0324 6.54436 46.0313 7.20036V333.218C46.0312 335.034 46.7526 336.776 48.037 338.062C49.3214 339.348 51.0639 340.071 52.8819 340.075H284.986C286.806 340.075 288.552 339.352 289.839 338.066C291.126 336.78 291.849 335.036 291.849 333.218V7.32045C291.849 5.50184 291.126 3.75772 289.839 2.47177C288.552 1.18582 286.806 0.463379 284.986 0.463379ZM291.548 333.218C291.545 334.956 290.853 336.621 289.623 337.85C288.393 339.079 286.726 339.771 284.986 339.774H52.8819C51.1436 339.771 49.4775 339.079 48.2495 337.85C47.0214 336.62 46.3317 334.954 46.3317 333.218V7.26041C46.3317 5.5235 47.0214 3.85756 48.2495 2.62825C49.4775 1.39895 51.1436 0.706734 52.8819 0.703553H284.986C286.725 0.709881 288.39 1.40272 289.619 2.631C290.849 3.85928 291.542 5.52337 291.548 7.26041V333.218Z" fill="#E0E0E0"/>
<path d="M544.962 0.463379H312.882C311.073 0.466439 309.339 1.18164 308.054 2.45396C306.77 3.72628 306.039 5.45321 306.02 7.26041V333.218C306.02 335.036 306.743 336.78 308.03 338.066C309.317 339.352 311.062 340.075 312.882 340.075H544.962C546.778 340.068 548.518 339.343 549.799 338.058C551.081 336.772 551.801 335.032 551.801 333.218V7.26041C551.785 5.45638 551.058 3.73124 549.778 2.45893C548.498 1.18661 546.768 0.469629 544.962 0.463379ZM551.525 333.218C551.521 334.956 550.829 336.621 549.599 337.85C548.369 339.079 546.702 339.771 544.962 339.774H312.882C311.142 339.774 309.473 339.084 308.242 337.854C307.011 336.624 306.32 334.957 306.32 333.218V7.26041C306.323 5.5224 307.016 3.85648 308.246 2.62752C309.475 1.39856 311.143 0.706727 312.882 0.703553H544.962C546.701 0.709881 548.366 1.40272 549.596 2.631C550.825 3.85928 551.518 5.52337 551.525 7.26041V333.218Z" fill="#E0E0E0"/>
<path d="M446.072 59.4632H573.29C573.29 59.4632 565.61 45.5569 549.769 49.8561C549.769 49.8561 551.692 26.6189 539.205 22.8961C526.717 19.1734 519.975 33.548 519.975 33.548C519.975 33.548 511.334 6.68412 495.012 10.0466C478.691 13.4091 471.972 41.2697 471.972 41.2697C471.972 41.2697 447.995 32.5993 446.072 59.4632Z" fill="#F5F5F5"/>
<path d="M262.139 104.94H389.404C389.404 104.94 381.712 91.0222 365.872 95.3333C365.872 95.3333 367.795 72.0962 355.307 68.3614C342.82 64.6266 336.077 79.0253 336.077 79.0253C336.077 79.0253 327.436 52.1614 311.115 55.5119C294.793 58.8624 288.063 86.735 288.063 86.735C288.063 86.735 264.062 78.0766 262.139 104.94Z" fill="#F5F5F5"/>
<path d="M259.832 19.2451H46.4648V393.634H259.832V19.2451Z" fill="#F5F5F5"/>
<path d="M224.281 138.806H89.0234V393.934H224.281V138.806Z" fill="#FAFAFA"/>
<path d="M215.735 146.912H98.7695V393.934H215.735V146.912Z" fill="#E6E6E6"/>
<path d="M267.559 21.9713H46.416V5.32701C46.9727 3.87908 47.9652 2.63943 49.2569 1.77905C50.5485 0.918665 52.0755 0.479964 53.6272 0.523455H259.999L260.096 0.763634L265.516 16.2191L267.559 21.9713Z" fill="#EBEBEB"/>
<path d="M57.1375 32.0228C63.2509 32.0228 68.2067 27.5226 68.2067 21.9714C68.2067 16.4201 63.2509 11.9199 57.1375 11.9199C51.0242 11.9199 46.0684 16.4201 46.0684 21.9714C46.0684 27.5226 51.0242 32.0228 57.1375 32.0228Z" fill="#EBEBEB"/>
<path d="M79.2879 32.0228C85.4013 32.0228 90.3571 27.5226 90.3571 21.9714C90.3571 16.4201 85.4013 11.9199 79.2879 11.9199C73.1746 11.9199 68.2188 16.4201 68.2188 21.9714C68.2188 27.5226 73.1746 32.0228 79.2879 32.0228Z" fill="#EBEBEB"/>
<path d="M101.438 32.0228C107.552 32.0228 112.507 27.5226 112.507 21.9714C112.507 16.4201 107.552 11.9199 101.438 11.9199C95.325 11.9199 90.3691 16.4201 90.3691 21.9714C90.3691 27.5226 95.325 32.0228 101.438 32.0228Z" fill="#EBEBEB"/>
<path d="M123.589 32.0228C129.702 32.0228 134.658 27.5226 134.658 21.9714C134.658 16.4201 129.702 11.9199 123.589 11.9199C117.475 11.9199 112.52 16.4201 112.52 21.9714C112.52 27.5226 117.475 32.0228 123.589 32.0228Z" fill="#EBEBEB"/>
<path d="M145.739 32.0228C151.852 32.0228 156.808 27.5226 156.808 21.9714C156.808 16.4201 151.852 11.9199 145.739 11.9199C139.626 11.9199 134.67 16.4201 134.67 21.9714C134.67 27.5226 139.626 32.0228 145.739 32.0228Z" fill="#EBEBEB"/>
<path d="M167.889 32.0228C174.003 32.0228 178.959 27.5226 178.959 21.9714C178.959 16.4201 174.003 11.9199 167.889 11.9199C161.776 11.9199 156.82 16.4201 156.82 21.9714C156.82 27.5226 161.776 32.0228 167.889 32.0228Z" fill="#EBEBEB"/>
<path d="M190.028 32.0228C196.142 32.0228 201.097 27.5226 201.097 21.9714C201.097 16.4201 196.142 11.9199 190.028 11.9199C183.915 11.9199 178.959 16.4201 178.959 21.9714C178.959 27.5226 183.915 32.0228 190.028 32.0228Z" fill="#EBEBEB"/>
<path d="M212.179 32.0228C218.292 32.0228 223.248 27.5226 223.248 21.9714C223.248 16.4201 218.292 11.9199 212.179 11.9199C206.065 11.9199 201.109 16.4201 201.109 21.9714C201.109 27.5226 206.065 32.0228 212.179 32.0228Z" fill="#EBEBEB"/>
<path d="M234.327 32.0228C240.44 32.0228 245.396 27.5226 245.396 21.9714C245.396 16.4201 240.44 11.9199 234.327 11.9199C228.214 11.9199 223.258 16.4201 223.258 21.9714C223.258 27.5226 228.214 32.0228 234.327 32.0228Z" fill="#EBEBEB"/>
<path d="M267.559 21.9715C267.559 27.5196 262.595 32.023 256.478 32.023C250.36 32.023 245.396 27.5196 245.396 21.9715C245.396 16.4234 250.36 11.9201 256.478 11.9201C258.207 11.8956 259.92 12.2646 261.486 12.999C263.051 13.7334 264.43 14.8141 265.516 16.1592L267.559 21.9715Z" fill="#EBEBEB"/>
<path d="M259.832 51.7412H46.4648V55.2478H259.832V51.7412Z" fill="#FAFAFA"/>
<path d="M425.341 314.279H259.844V321.713H425.341V314.279Z" fill="#E0E0E0"/>
<path d="M294.649 393.622H269.662V277.748L282.149 267.084L294.649 277.748V393.622Z" fill="#E6E6E6"/>
<path d="M330.442 393.622H305.455V277.748L317.954 267.084L330.442 277.748V393.622Z" fill="#E6E6E6"/>
<path d="M366.245 393.622H341.258V277.748L353.745 267.084L366.245 277.748V393.622Z" fill="#E6E6E6"/>
<path d="M402.036 393.622H377.049V277.748L389.548 267.084L402.036 277.748V393.622Z" fill="#E6E6E6"/>
<path d="M437.828 393.622H412.854V277.748L425.341 267.084L437.828 277.748V393.622Z" fill="#E6E6E6"/>
<path d="M179.644 42.5184C179.644 42.5184 177.324 36.8502 163.034 38.5314C148.744 40.2127 147.265 59.1146 140.126 72.5526C132.987 85.9905 125.403 92.5113 125.403 92.5113C125.403 92.5113 124.358 100.701 139.91 105.325C155.462 109.948 185.941 102.227 185.941 102.227C185.941 102.227 189.883 66.4521 184.03 55.536C178.177 44.6199 179.644 42.5184 179.644 42.5184Z" fill="#263238"/>
<path d="M221.42 399.867L202.058 401.067C202.058 401.067 193.849 326.516 184.811 272.236C184.811 272.056 184.811 271.852 184.727 271.648C181.025 249.491 177.191 230.818 173.73 222.063C173.73 222.063 169.283 291.558 167.961 322.409C166.639 353.26 160.473 407.24 160.473 407.24L142.577 409.894C142.577 409.894 139.621 302.438 141.376 282.143C143.13 261.848 135.138 186.673 148.911 168.059H198.729C198.729 168.059 218.018 273.665 219.413 302.943C220.807 332.221 221.42 399.867 221.42 399.867Z" fill="#263238"/>
<path d="M156.268 407.48L155.98 413.245L155.307 426.587L145.283 428.076L145.055 413.677L144.971 408.141L156.268 407.48Z" fill="#FF8B7B"/>
<path d="M217.117 422.095L205.904 425.217C205.904 425.217 205.639 418.48 205.375 412.008C205.207 407.841 205.038 403.782 204.93 401.704C204.93 400.899 204.858 400.407 204.834 400.299L216.925 399.098V402.893L217.009 411.467L217.117 422.095Z" fill="#FF8B7B"/>
<path d="M159.344 423.632C159.344 423.632 161.207 416.175 164.151 416.547C167.096 416.919 159.344 423.632 159.344 423.632Z" stroke="#70E166" stroke-miterlimit="10"/>
<path d="M160.186 423.632C160.186 423.632 167.192 418.696 168.49 421.23C169.788 423.764 160.186 423.632 160.186 423.632Z" stroke="#70E166" stroke-miterlimit="10"/>
<path d="M221.42 424.389C221.42 424.389 222.982 416.499 224.749 416.499C226.516 416.499 221.42 424.389 221.42 424.389Z" stroke="#70E166" stroke-miterlimit="10"/>
<path d="M221.047 426.838C221.047 426.838 225.157 418.756 227.309 420.498C229.46 422.239 221.047 426.838 221.047 426.838Z" stroke="#70E166" stroke-miterlimit="10"/>
<path d="M168.094 433.311C168.094 433.311 146.725 433.864 145.174 433.672C143.624 433.48 141.905 433.396 141.785 431.714C141.785 430.898 142.518 425.938 142.638 424.209C142.759 422.479 142.326 421.579 144.501 421.026C146.677 420.474 157.241 419.249 158.515 420.558C159.789 421.867 164.14 426.851 167.361 427.427C170.582 428.004 173.286 427.775 173.514 429.601C173.743 431.426 173.815 433.179 168.094 433.311Z" fill="#263238"/>
<path d="M229.618 433.311C229.618 433.311 208.26 433.864 206.698 433.672C205.136 433.48 203.597 433.011 203.345 432.231C203.092 431.45 204.054 425.938 204.162 424.209C204.27 422.479 203.85 421.579 206.025 421.026C208.2 420.474 218.765 419.249 220.039 420.558C221.313 421.867 225.663 426.851 228.896 427.427C232.129 428.004 234.81 427.775 235.038 429.601C235.266 431.426 235.338 433.179 229.618 433.311Z" fill="#263238"/>
<path opacity="0.3" d="M184.728 271.636C181.026 249.479 177.192 230.806 173.73 222.051L176.026 209.466C176.026 209.466 181.975 254.379 184.728 271.636Z" fill="black"/>
<path opacity="0.2" d="M156.243 407.48L155.954 413.245C153.142 413.353 147.541 413.557 145.029 413.677L144.945 408.141L156.243 407.48Z" fill="black"/>
<path opacity="0.2" d="M217.034 411.455L205.376 412.008C205.208 407.841 205.04 403.782 204.932 401.704L216.95 402.905L217.034 411.455Z" fill="black"/>
<path d="M224.725 399.086L222.935 408.225L201.589 409.882L198.789 399.086H224.725Z" fill="#70E166"/>
<path d="M163.347 402.064L161.472 411.095L139.189 412.152L139.201 402.064H163.347Z" fill="#70E166"/>
<path d="M229.437 140.162C224.63 142.456 211.409 144.966 211.409 144.966C211.409 144.966 202.756 122.617 200.472 109.912C199.756 105.37 197.585 101.182 194.284 97.9779C190.984 94.7733 186.733 92.7245 182.168 92.1389C176.327 91.3824 151.665 91.6346 143.011 93.4119C134.358 95.1892 132.855 107.883 132.086 115.508C131.317 123.134 126.498 151.535 130.56 159.941C134.622 168.347 148.864 165.009 148.864 165.009V168.059H198.694L197.492 144.762C197.492 144.762 202.203 157.131 209.51 157.635C216.818 158.14 233.404 145.963 233.404 145.963L229.437 140.162ZM141.701 153.192C141.701 153.192 142.254 138.685 143.24 134.506L144.742 142.252L146.857 153.192H141.701Z" fill="#70E166"/>
<path d="M173.393 149.902L181.23 140.427L192.227 138.746L193.909 148.509L185.496 151.583C185.496 151.583 181.446 156.459 173.357 155.618L173.393 149.902Z" fill="#FF8B7B"/>
<path d="M229.438 140.163L233.512 132.693L243.451 128.514L247.213 138.686L238.98 141.892C238.98 141.892 236.829 146.624 233.512 146.011L229.438 140.163Z" fill="#FF8B7B"/>
<path d="M173.562 83.0363C173.509 83.9001 173.509 84.7665 173.562 85.6303C173.683 87.2755 173.37 90.2897 176.603 91.8749C174.933 95.4775 170.906 104.508 168.467 107.57C164.753 104.532 156.027 92.2712 156.027 92.2712C156.027 92.2712 162.157 85.6303 157.758 73.117C157.758 73.117 151.58 68.6017 152.818 66.1158C154.236 63.2217 158.263 64.7828 159.116 66.0077C158.215 64.6868 154.02 50.192 159.116 44.8601C162.289 41.5336 165.462 41.4976 171.375 41.2574H171.868C175.654 41.1253 178.466 41.2574 178.466 41.2574C179.751 42.6409 180.884 44.1588 181.843 45.7848C184.525 50.1591 186.169 55.0884 186.651 60.1955C187.769 72.0963 185.425 81.7394 173.562 83.0363Z" fill="#FF8B7B"/>
<path d="M176.832 68.2416C176.832 68.2416 171.447 70.0669 169.488 65.9839" stroke="#263238" stroke-width="0.5" stroke-linecap="round" stroke-linejoin="round"/>
<path d="M170.329 51.0685C169.428 51.042 168.538 51.2688 167.76 51.7232C166.983 52.1776 166.348 52.8412 165.93 53.6384" stroke="#263238" stroke-linecap="round" stroke-linejoin="round"/>
<path d="M184.031 49.8317C183.594 49.3546 183.066 48.9704 182.477 48.7021C181.889 48.4339 181.252 48.2871 180.605 48.2705" stroke="#263238" stroke-linecap="round" stroke-linejoin="round"/>
<path d="M179.079 66.0318L178.021 57.0371L183.322 63.8341C183.322 63.8341 182.805 66.1759 179.079 66.0318Z" fill="#FF5652"/>
<path d="M170.377 57.1091C170.437 58.0217 170.978 58.7303 171.579 58.6942C172.18 58.6582 172.601 57.8776 172.529 56.9529C172.457 56.0283 171.94 55.3317 171.327 55.3798C170.714 55.4278 170.305 56.2324 170.377 57.1091Z" fill="#263238"/>
<path d="M180.857 55.6081C180.93 56.5328 181.458 57.2413 182.059 57.1933C182.66 57.1452 183.081 56.3767 183.009 55.452C182.937 54.5273 182.408 53.8308 181.807 53.8788C181.206 53.9268 180.797 54.6954 180.857 55.6081Z" fill="#263238"/>
<path d="M155.461 59.3547C155.461 59.3547 149.32 51.1286 154.392 45.7967C157.564 42.4702 166.098 40.2966 171.999 40.0444C171.867 41.4375 171.999 53.6385 155.461 59.3547Z" fill="#263238"/>
<path d="M181.939 45.8208C178.166 45.4399 174.625 43.8228 171.867 41.2214L171.398 40.729C173.766 40.6313 176.136 40.8005 178.465 41.2334C179.751 42.6169 180.883 44.1347 181.843 45.7607L181.939 45.8208Z" fill="#263238"/>
<path opacity="0.2" d="M173.598 85.6301C170.986 84.8366 168.668 83.2859 166.939 81.1748C169.01 82.2071 171.257 82.8386 173.562 83.0362C173.52 83.9007 173.532 84.7671 173.598 85.6301Z" fill="black"/>
<path opacity="0.2" d="M144.754 142.252L143.252 134.506V123.386C143.252 123.386 144.983 135.119 144.754 142.252Z" fill="black"/>
<path d="M365.631 106.276L278.023 111.231L281.84 178.602L369.448 173.646L365.631 106.276Z" fill="#70E166"/>
<path opacity="0.3" d="M365.631 106.276L278.023 111.231L281.84 178.602L369.448 173.646L365.631 106.276Z" fill="black"/>
<path d="M333.79 108.083L246.182 113.039L249.998 180.409L337.606 175.453L333.79 108.083Z" fill="#70E166"/>
<path opacity="0.3" d="M333.79 108.083L246.182 113.039L249.998 180.409L337.606 175.453L333.79 108.083Z" fill="white"/>
<path opacity="0.3" d="M344.627 113.905L325.926 115.026L326.304 121.331L345.005 120.21L344.627 113.905Z" fill="black"/>
<path opacity="0.5" d="M270.323 120.104L251.652 121.16L252.23 131.351L270.901 130.295L270.323 120.104Z" fill="white"/>
<path opacity="0.3" d="M276.844 146.68L248.189 148.301L248.64 156.25L277.294 154.629L276.844 146.68Z" fill="black"/>
<path d="M390.942 50.7446L386.135 56.8692C387.467 57.7981 388.998 58.4027 390.606 58.6345L390.942 50.7446Z" fill="#A02724"/>
<path d="M473.92 426.358L459.954 425.566L457.118 413.665L455.567 407.144L454.99 404.742L465.735 404.01L466.504 403.95L468.788 410.855L473.92 426.358Z" fill="#B55B52"/>
<path d="M393.612 428.316C393.876 429.265 380.644 427.571 380.644 427.571L380.175 416.463L379.814 407.889V407.42H379.923L393.359 408.753C393.359 408.753 393.359 412.356 393.359 416.451C393.384 421.711 393.456 427.799 393.612 428.316Z" fill="#B55B52"/>
<path d="M421.638 82.9527C421.638 82.9527 402.769 88.0564 404.163 84.3577C404.865 82.119 405.147 79.7696 404.992 77.4286C404.992 75.8914 404.8 74.7986 404.8 74.7986C397.973 75.1949 393.382 70.2593 391.339 64.1828C388.707 56.389 389.668 47.6826 392.865 40.2851C393.118 39.6847 393.839 37.1388 394.476 36.8265L401.879 33.416C401.879 33.416 409.091 38.1355 412.84 41.0657C416.59 43.9958 419.607 57.6139 419.607 68.2058C419.607 78.7976 421.638 82.9527 421.638 82.9527Z" fill="#B55B52"/>
<path d="M390.379 48.499C390.045 48.5901 389.749 48.7845 389.533 49.0542C389.317 49.3239 389.193 49.6551 389.177 50.0001C389.127 50.3206 389.177 50.6486 389.319 50.9403C389.46 51.232 389.688 51.4738 389.97 51.6333L390.379 48.499Z" fill="#263238"/>
<path d="M390.379 42.3985C391.164 42.3809 391.937 42.5938 392.602 43.0109" stroke="#263238" stroke-linecap="round" stroke-linejoin="round"/>
<path d="M396.94 61.889C396.94 61.889 402.42 70.4393 411.146 72.3968C419.871 74.3542 422.624 71.328 423.79 66.3924C424.8 61.7387 427.036 57.4393 430.268 53.9391C433.284 50.8288 431.47 42.3866 427.636 35.4455C427.636 35.4455 431.746 31.9989 425.124 28.6845C418.501 25.37 416.062 30.8821 410.317 27.6637C404.572 24.4453 412.24 23.3765 406.819 33.416C401.399 43.4554 398.406 36.154 397.601 40.6213C396.796 45.0886 392.601 52.8463 396.94 61.889Z" fill="#263238"/>
<path d="M397.601 42.6989C397.061 42.5187 379.682 36.2381 379.513 33.392C379.345 30.5459 392.986 35.7217 393.503 35.9259L397.024 41.486L397.601 42.6989Z" fill="#70E166"/>
<path d="M432.672 49.5798C432.504 50.0962 431.47 53.5187 431.026 53.5187L429.571 53.4347C428.217 53.3226 426.871 53.1665 425.533 52.9663C424.055 52.7381 422.601 52.4499 421.17 52.1137H421.11C419.656 51.7654 418.226 51.3811 416.832 50.9128C413.41 49.8804 410.051 48.6494 406.772 47.2261C404.921 46.4215 403.287 45.6409 401.965 44.9684C399.26 43.6234 397.65 42.6747 397.65 42.6747L397.41 42.2784L396.424 40.7293L394.321 37.4028L393.6 36.286V36.2019C393.566 36.1006 393.566 35.991 393.6 35.8897C393.672 34.6167 396.28 31.0861 396.749 30.4857C398.679 27.9077 401.137 25.7707 403.96 24.217C407.83 22.0795 412.193 23.0162 416.303 23.7367C417.663 24.0188 418.988 24.4455 420.257 25.0096L421.062 25.3579L421.219 25.4299C421.363 25.514 421.519 25.574 421.663 25.6461L421.928 25.7782C424.982 27.2074 427.761 29.1627 430.136 31.5545C435.545 37.619 433.345 47.6224 432.672 49.5798Z" fill="#70E166"/>
<path d="M426.795 89.4013C426.795 89.4013 425.929 83.3969 424.042 82.196C422.156 80.9951 403.406 81.1753 400.486 83.2288C397.565 85.2823 398.082 91.9953 398.082 91.9953L426.795 89.4013Z" fill="#70E166"/>
<path d="M393.515 52.4019C393.515 52.4019 396.712 48.2708 400.138 50.8287C403.563 53.3866 400.847 59.4511 396.821 61.1564C396.821 61.1564 391.616 62.8496 390.943 57.5537C390.27 52.2578 393.515 52.4019 393.515 52.4019Z" fill="#B55B52"/>
<path d="M380.691 196.172C380.691 196.172 373.54 264.539 371.545 295.978C369.55 327.417 376.882 407.817 376.882 407.817H394.273C394.273 407.817 396.268 327.946 399.272 303.988C402.277 280.03 412.252 247.546 412.252 247.546C412.252 247.546 418.262 298.956 424.271 319.924C430.28 340.891 449.799 404.947 449.799 404.947L469.822 401.104C469.822 401.104 445.785 318.927 445.785 293.468C445.785 268.009 446.013 216.611 440.028 196.196L380.691 196.172Z" fill="#70E166"/>
<path opacity="0.3" d="M469.786 401.128L449.775 404.983C449.775 404.983 430.268 340.928 424.259 319.96C420.954 308.431 417.661 287.668 415.365 271.324C413.442 257.982 412.24 247.582 412.24 247.582C412.24 247.582 402.253 280.006 399.248 304.024C396.244 328.042 394.261 407.853 394.261 407.853H376.882C376.882 407.853 369.55 327.466 371.545 296.026C373.54 264.587 380.691 196.208 380.691 196.208H439.967C445.977 216.624 445.736 268.082 445.736 293.48C445.736 318.879 469.786 401.128 469.786 401.128Z" fill="black"/>
<path opacity="0.3" d="M415.353 271.324C413.442 257.982 412.24 247.582 412.24 247.582L413.442 228.92L415.353 271.324Z" fill="black"/>
<path d="M374.994 404.479H395.834L394.813 413.053H375.811L374.994 404.479Z" fill="#263238"/>
<path d="M447.262 403.23L469.797 394.859L472.645 407.036L450.651 413.053L447.262 403.23Z" fill="#263238"/>
<path opacity="0.2" d="M465.736 404.01L455.568 407.144L457.119 413.665L468.789 410.855L465.736 404.01Z" fill="black"/>
<path opacity="0.2" d="M393.358 416.499H380.138L379.777 407.925L379.861 407.469L393.298 408.802C393.298 408.802 393.334 412.356 393.358 416.499Z" fill="black"/>
<path d="M373.78 432.579C373.864 432.807 365.463 427.92 367.77 425.638C370.078 423.356 373.78 432.579 373.78 432.579Z" stroke="#70E166" stroke-miterlimit="10"/>
<path d="M374.983 432.231C374.923 432.471 370.295 423.933 373.444 423.176C376.593 422.42 374.983 432.231 374.983 432.231Z" stroke="#70E166" stroke-miterlimit="10"/>
<path d="M458.019 427.391C458.019 427.391 455.267 418.541 452.598 419.994C449.93 421.447 458.019 427.391 458.019 427.391Z" stroke="#70E166" stroke-miterlimit="10"/>
<path d="M457.273 428.16C457.273 428.16 451.06 421.303 449.245 423.705C447.43 426.106 457.273 428.16 457.273 428.16Z" stroke="#70E166" stroke-miterlimit="10"/>
<path d="M474.437 425.542H459.51C459.51 425.542 450.88 430.73 447.094 431.21C443.309 431.691 441.085 431.919 441.193 434.633C441.301 437.347 443.597 437.587 451.349 437.467C459.101 437.347 474.485 438.295 476.155 436.758C477.826 435.221 476.768 432.327 474.437 425.542Z" fill="#263238"/>
<path d="M393.611 427.391L379.189 427.499C379.189 427.499 370.559 432.687 366.785 433.167C363.011 433.648 360.776 433.876 360.872 436.59C360.968 439.304 363.276 439.544 371.04 439.424C378.804 439.304 392.493 440.421 394.164 438.884C395.834 437.346 394.909 434.825 393.611 427.391Z" fill="#263238"/>
<path opacity="0.3" d="M393.503 35.9255C393.875 37.8349 394.26 39.3 397.421 42.6265C393.407 41.1374 379.657 35.8295 379.513 33.3917C379.369 30.9539 390.042 34.6166 393.503 35.9255Z" fill="black"/>
<path opacity="0.3" d="M393.504 36.2258C393.47 36.1245 393.47 36.0149 393.504 35.9136C393.504 35.9136 393.504 36.0457 393.504 36.2979V36.2258Z" fill="black"/>
<path opacity="0.3" d="M397.601 42.6989L397.229 42.5548C397.248 42.5044 397.272 42.4561 397.301 42.4106L397.601 42.6989Z" fill="black"/>
<path d="M432.672 49.5798C432.504 50.0962 431.47 53.5187 431.026 53.5187L429.571 53.4347C428.217 53.3226 426.871 53.1665 425.533 52.9663C424.055 52.7381 422.601 52.4499 421.17 52.1137H421.11C419.656 51.7654 418.226 51.3811 416.832 50.9128C413.41 49.8804 410.051 48.6494 406.772 47.2261C404.921 46.4215 403.287 45.6409 401.965 44.9684C399.26 43.6234 397.65 42.6747 397.65 42.6747L397.41 42.2784L396.424 40.7293L394.321 37.4028L393.6 36.286V36.2019C393.566 36.1006 393.566 35.991 393.6 35.8897C393.672 34.6167 396.28 31.0861 396.749 30.4857C398.679 27.9077 401.137 25.7707 403.96 24.217C407.83 22.0795 412.193 23.0162 416.303 23.7367C417.663 24.0188 418.988 24.4455 420.257 25.0096L421.062 25.3579L421.219 25.4299C421.363 25.514 421.519 25.574 421.663 25.6461L421.928 25.7782C424.982 27.2074 427.761 29.1627 430.136 31.5545C435.545 37.619 433.345 47.6224 432.672 49.5798Z" fill="#70E166"/>
<path opacity="0.2" d="M409.031 73.6455C407.752 74.9757 406.404 76.2383 404.993 77.4283C404.993 75.8912 404.801 74.7984 404.801 74.7984C406.251 74.5778 407.67 74.1909 409.031 73.6455Z" fill="black"/>
<path d="M380.691 196.845V135.335L369.453 130.76C369.453 130.76 371.604 97.9394 387.601 92.7636C403.598 87.5877 432.07 85.4141 439.906 92.7636C444.858 97.435 445.519 104.929 445.699 111.353C446.084 124.443 442.659 137.244 441.902 150.262C441.301 160.854 440.94 171.446 440.7 182.05C440.7 182.866 440.387 196.845 440.363 196.845H380.691Z" fill="#263238"/>
<path d="M386.845 137.437C386.845 137.437 378.529 164.889 370.308 166.606C362.087 168.324 334.011 153.012 334.011 153.012H321.476L319.697 142C319.697 142 331.367 137.677 339.143 142.853C339.143 142.853 357.304 150.767 363.349 153.072L372.111 131.889L386.845 137.437Z" fill="#B55B52"/>
</g>
<defs>
<clipPath id="clip0_103_665">
<rect width="602" height="449" fill="white"/>
</clipPath>
</defs>
</svg>
