<svg width="231" height="270" viewBox="0 0 231 270" fill="none" xmlns="http://www.w3.org/2000/svg">
<path opacity="0.8" d="M216.816 28.4004C213.13 28.6958 209.432 28.7849 205.737 28.6672C204.428 28.3898 203.087 28.3 201.753 28.4004H201.326C190.891 27.6427 180.566 25.7768 170.525 22.8342C157.935 18.92 146.333 12.3458 136.505 3.55689C134.118 1.25782 130.928 -0.0183622 127.614 0.000199683H112.533C109.153 0.0247887 105.9 1.29057 103.393 3.55689C92.961 12.3194 80.8618 18.8771 67.8256 22.8342C57.6367 25.7637 47.1715 27.6291 36.5978 28.4004H36.171C34.8314 28.3 33.4842 28.3898 32.1698 28.6672C28.4806 28.7851 24.7877 28.6961 21.1084 28.4004C19.2137 28.2556 17.3092 28.4917 15.5072 29.095C13.7053 29.6983 12.0425 30.6565 10.6169 31.913C9.19137 33.1694 8.03197 34.6987 7.20717 36.4107C6.38236 38.1226 5.90886 39.9824 5.81463 41.8803L0.0172251 191.546C-0.114841 194.576 0.514175 197.591 1.84683 200.315C3.17949 203.039 5.17332 205.387 7.64632 207.142L91.4954 266.112C94.5841 268.278 98.2684 269.434 102.041 269.42H117.104C120.955 269.406 124.716 268.255 127.916 266.112L216.318 207.142C218.921 205.424 221.083 203.117 222.628 200.407C224.173 197.697 225.057 194.662 225.209 191.546L230.989 41.8803C231.065 40.0298 230.745 38.1844 230.05 36.4677C229.355 34.751 228.301 33.2026 226.959 31.9263C225.617 30.6499 224.018 29.675 222.268 29.067C220.519 28.4589 218.66 28.2316 216.816 28.4004V28.4004Z" fill="#416448"/>
<path d="M9.8155 191.262L15.3462 48.1581C15.4687 45.5344 16.5911 43.0572 18.4827 41.235C20.3744 39.4128 22.8919 38.3838 25.5183 38.3594H28.7727C42.8446 38.1845 56.8269 36.0904 70.3327 32.1352C83.1789 28.2419 95.2245 22.0805 105.9 13.9427C107.658 12.5099 109.856 11.7275 112.124 11.7275C114.392 11.7275 116.59 12.5099 118.348 13.9427C128.479 22.1321 140.08 28.3127 152.528 32.153C165.871 36.1283 179.704 38.2232 193.626 38.3772H196.631C197.926 38.366 199.21 38.6194 200.404 39.1218C201.598 39.6243 202.677 40.3653 203.574 41.2993C204.471 42.2334 205.169 43.3409 205.623 44.5539C206.077 45.7669 206.279 47.0599 206.216 48.3537L200.686 191.28C200.611 192.89 200.159 194.46 199.365 195.862C198.571 197.265 197.458 198.461 196.115 199.353L108.265 258.039C106.635 259.15 104.707 259.745 102.734 259.745C100.761 259.745 98.8337 259.15 97.2035 258.039L13.8701 199.353C12.5673 198.455 11.5124 197.243 10.8036 195.828C10.0947 194.414 9.75484 192.843 9.8155 191.262Z" fill="#70E166"/>
<path opacity="0.2" d="M34.2324 183.703L38.9273 62.0466C51.4994 61.052 63.9394 58.794 76.0591 55.3067C88.4227 51.5883 100.208 46.1656 111.075 39.1948C121.484 46.198 132.869 51.6271 144.863 55.3067C156.804 58.8092 169.075 61.0678 181.48 62.0466L176.767 183.703L103.606 232.501L34.2324 183.703Z" fill="white"/>
<path opacity="0.2" d="M58.8281 170.988L62.2248 83.1197C68.7335 81.8926 75.2956 80.3455 81.7866 78.4782C91.5141 75.6125 100.942 71.8129 109.938 67.1323C118.636 71.8287 127.788 75.6302 137.253 78.4782C143.679 80.3395 150.099 81.8867 156.513 83.1197L153.116 170.988L104.745 203.372L58.8281 170.988Z" fill="white"/>
<path d="M72.6486 127.722L105.038 154.819L145.931 104.031" stroke="#65816B" stroke-width="9" stroke-linecap="round"/>
</svg>
